# xmcd
#
# Track frame offsets:
#	150
#	13839
#	33781
#	49849
#	63557
#	83553
#	98032
#	113809
#	129012
#	145770
#	163955
#	177728
#	192345
#	207136
#	223198
#	238154
#	253897
#	270360
#	286122
#	304254
#
# Disc length: 4226
#
# Revision: 3
# Processed by: cddbd v1.5.1PL0 Copyright (c) Steve Scherf et al.
# Submitted via: CDex 1.50
# Normalized: r1:TDELIM( - ),TSWAP
#
DISCID=23108014
DTITLE=DIE SUPER HITPARADE - Die Super Hitparade CD2
DYEAR=1900
DGENRE=Schlager
TTITLE0=Zlatko - Ich Vermiss' Dich(Wie die Hölle)
TTITLE1=BERNHARD BRINK - Vorbei Ist Vorbei
TTITLE2=WOLFGANG PETRY - Da Geht Mir Voll Einer Ab
TTITLE3=ANDY WOLFF - Ab Heute Will Ich Mehr Von Dir
TTITLE4=KASTELRUTHER SPATZEN - Ein Leben Lang
TTITLE5=AXEL BECKER - Ich Fühle Wie Du
TTITLE6=JANTJE SMIT - Jeder Braucht Ein Byßchen Glück
TTITLE7=HANSI HINTERSEER - Dich Gibt's Nur Himmel
TTITLE8=ROSANNA ROCCI and MICHAEL MORGAN - Io Vivo Per Te
TTITLE9=WIND - Island Of Love
TTITLE10=JENS BOGNER - Noch Immer Leuchten Deine Augen
TTITLE11=Wenn Du Kannst - IREEN SHEER - Lüg'
TTITLE12=BLANCA and RAY - Lago Di Garda
TTITLE13=JEANNINE - Mi Amor
TTITLE14=SIMONE - Niemand Weint Für Immer
TTITLE15=OLAF BERGER - Sonntagskinder
TTITLE16=PATRICK LINDNER - Jeder Braucht Einen Freund
TTITLE17=ANDREA BERG - Ich Will Deine Sehnsucht
TTITLE18=DIE WILDECKER HERZBUBEN - Die Volkstümlische Hitmix
TTITLE19=MONIQUE - Einmal So, Einmal So
EXTD=
EXTT0=
EXTT1=
EXTT2=
EXTT3=
EXTT4=
EXTT5=
EXTT6=
EXTT7=
EXTT8=
EXTT9=
EXTT10=
EXTT11=
EXTT12=
EXTT13=
EXTT14=
EXTT15=
EXTT16=
EXTT17=
EXTT18=
EXTT19=
PLAYORDER=
